<mxfile host="app.diagrams.net" modified="2021-08-14T02:07:00.293Z" agent="5.0 (Windows NT 10.0; Win64; x64) AppleWebKit/537.36 (KHTML, like Gecko) Chrome/92.0.4515.131 Safari/537.36" etag="jYr-g5SXLcaeBL_ibp8s" version="14.9.6" type="github">
  <diagram id="O3l1h92QLlGpIxGf_9sg" name="Page-1">
    <mxGraphModel dx="1209" dy="626" grid="1" gridSize="10" guides="1" tooltips="1" connect="1" arrows="1" fold="1" page="1" pageScale="1" pageWidth="850" pageHeight="1100" math="0" shadow="0">
      <root>
        <mxCell id="0" />
        <mxCell id="1" parent="0" />
        <mxCell id="GpQMQiEMQsu-yk-W0cmi-1" value="" style="shape=image;verticalLabelPosition=bottom;labelBackgroundColor=#ffffff;verticalAlign=top;aspect=fixed;imageAspect=0;image=https://linuxcommand.org/images/file_permissions.png;" vertex="1" parent="1">
          <mxGeometry x="70" y="50" width="650" height="380" as="geometry" />
        </mxCell>
      </root>
    </mxGraphModel>
  </diagram>
</mxfile>
